<svg width="25" height="24" viewBox="0 0 25 24" fill="none" xmlns="http://www.w3.org/2000/svg">
<path d="M15.5 22.75H9.5C4.07 22.75 1.75 20.43 1.75 15V9C1.75 3.57 4.07 1.25 9.5 1.25H15.5C20.93 1.25 23.25 3.57 23.25 9V15C23.25 20.43 20.93 22.75 15.5 22.75ZM9.5 2.75C4.89 2.75 3.25 4.39 3.25 9V15C3.25 19.61 4.89 21.25 9.5 21.25H15.5C20.11 21.25 21.75 19.61 21.75 15V9C21.75 4.39 20.11 2.75 15.5 2.75H9.5Z" fill="white"/>
<path d="M11.2397 16.2802C11.0497 16.2802 10.8597 16.2102 10.7097 16.0602C10.4197 15.7702 10.4197 15.2902 10.7097 15.0002L13.7097 12.0002L10.7097 9.00016C10.4197 8.71016 10.4197 8.23016 10.7097 7.94016C10.9997 7.65016 11.4797 7.65016 11.7697 7.94016L15.2997 11.4702C15.5897 11.7602 15.5897 12.2402 15.2997 12.5302L11.7697 16.0602C11.6197 16.2102 11.4297 16.2802 11.2397 16.2802Z" fill="white"/>
</svg>
