<svg width="60" height="60" viewBox="0 0 50 50" fill="none" xmlns="http://www.w3.org/2000/svg">
<path d="M25.0013 47.3962C12.6471 47.3962 2.60547 37.3545 2.60547 25.0003C2.60547 12.6462 12.6471 2.60449 25.0013 2.60449C37.3555 2.60449 47.3971 12.6462 47.3971 25.0003C47.3971 37.3545 37.3555 47.3962 25.0013 47.3962ZM25.0013 5.72949C14.3763 5.72949 5.73047 14.3753 5.73047 25.0003C5.73047 35.6253 14.3763 44.2712 25.0013 44.2712C35.6263 44.2712 44.2721 35.6253 44.2721 25.0003C44.2721 14.3753 35.6263 5.72949 25.0013 5.72949Z" fill="#8E8E93"/>
<path d="M25 33.8545C24.1458 33.8545 23.4375 33.1462 23.4375 32.292V19.792C23.4375 18.9378 24.1458 18.2295 25 18.2295C25.8542 18.2295 26.5625 18.9378 26.5625 19.792V32.292C26.5625 33.1462 25.8542 33.8545 25 33.8545Z" fill="#8E8E93"/>
<path d="M31.2487 25.5212C30.8529 25.5212 30.457 25.3753 30.1445 25.0628L24.9987 19.917L19.8529 25.0628C19.2487 25.667 18.2487 25.667 17.6445 25.0628C17.0404 24.4587 17.0404 23.4587 17.6445 22.8545L23.8945 16.6045C24.4987 16.0003 25.4987 16.0003 26.1029 16.6045L32.3529 22.8545C32.957 23.4587 32.957 24.4587 32.3529 25.0628C32.0404 25.3753 31.6445 25.5212 31.2487 25.5212Z" fill="#8E8E93"/>
</svg>
