<svg width="30" height="30" viewBox="0 0 30 30" fill="none" xmlns="http://www.w3.org/2000/svg">
<g clip-path="url(#clip0_1810_13082)">
<path d="M0.9375 15C0.9375 18.7296 2.41908 22.3065 5.05631 24.9437C7.69354 27.5809 11.2704 29.0625 15 29.0625C18.7296 29.0625 22.3065 27.5809 24.9437 24.9437C27.5809 22.3065 29.0625 18.7296 29.0625 15C29.0625 11.2704 27.5809 7.69354 24.9437 5.05631C22.3065 2.41908 18.7296 0.9375 15 0.9375C11.2704 0.9375 7.69354 2.41908 5.05631 5.05631C2.41908 7.69354 0.9375 11.2704 0.9375 15Z" stroke="black" stroke-width="1.5" stroke-linecap="round" stroke-linejoin="round"/>
<path d="M8.30078 2.63672C11.9089 5.37182 14.834 8.90587 16.8467 12.9615C18.8593 17.0172 19.9047 21.4841 19.9008 26.0117C19.9008 26.7617 19.8717 27.4992 19.8133 28.2242" stroke="black" stroke-width="1.5" stroke-linecap="round" stroke-linejoin="round"/>
<path d="M25.4992 5.65039C20.0366 10.869 12.7665 13.7717 5.21172 13.7504C3.80641 13.7494 2.40291 13.6491 1.01172 13.4504" stroke="black" stroke-width="1.5" stroke-linecap="round" stroke-linejoin="round"/>
<path d="M4.0625 23.8379C9.52381 18.5753 16.8158 15.6398 24.4 15.6504C25.9475 15.6588 27.4926 15.7715 29.025 15.9879" stroke="black" stroke-width="1.5" stroke-linecap="round" stroke-linejoin="round"/>
</g>
<defs>
<clipPath id="clip0_1810_13082">
<rect width="30" height="30" fill="white"/>
</clipPath>
</defs>
</svg>
