<svg width="31" height="25" viewBox="0 0 31 25" fill="none" xmlns="http://www.w3.org/2000/svg">
<path fill-rule="evenodd" clip-rule="evenodd" d="M2.0738 10.7623C10.1716 7.23426 15.5714 4.90834 18.2732 3.78456C25.9874 0.575968 27.5903 0.0186008 28.6351 0.000196234C28.8649 -0.00385165 29.3787 0.0530967 29.7115 0.32315C29.9925 0.551178 30.0699 0.859211 30.1069 1.07541C30.1439 1.2916 30.1899 1.7841 30.1533 2.16893C29.7353 6.56125 27.9264 17.2203 27.0062 22.1397C26.6168 24.2214 25.8501 24.9193 25.1079 24.9876C23.4947 25.1361 22.2698 23.9216 20.7074 22.8974C18.2626 21.2948 16.8815 20.2972 14.5084 18.7333C11.7658 16.926 13.5437 15.9327 15.1067 14.3094C15.5157 13.8845 22.6231 7.41981 22.7607 6.83335C22.7779 6.76001 22.7938 6.48661 22.6314 6.34225C22.469 6.19788 22.2293 6.24725 22.0563 6.28651C21.8111 6.34216 17.9055 8.92363 10.3394 14.0309C9.23084 14.7921 8.22671 15.1631 7.32704 15.1436C6.33523 15.1222 4.42738 14.5828 3.00909 14.1218C1.26951 13.5563 -0.113084 13.2574 0.00730817 12.297C0.070016 11.7968 0.758848 11.2853 2.0738 10.7623Z" fill="black"/>
</svg>
