<svg width="277" height="90" viewBox="0 0 277 90" fill="none" xmlns="http://www.w3.org/2000/svg">
<path d="M2.62352 43.6749C2.62352 43.6749 28.2902 17.2288 50.5032 11.8403C80.0143 4.68149 101.216 46.0428 99.3111 66.5174C97.4064 86.9921 77.4079 88.8967 64.5518 86.9921C51.6956 85.0875 41.9344 69.3036 46.4579 51.5186C50.9813 33.7336 81.2574 0.303358 123.479 3.68985C165.701 7.07635 186.084 30.0902 169.624 53.7365C163.596 62.3965 155.745 66.7939 147.545 69.3036C139.345 71.8132 122.378 67.2849 123.759 50.0579C125.141 32.8308 160.486 3.96334 190.703 9.0817C217.766 13.6658 243.172 34.2933 241.472 55.497C239.771 76.7007 219.736 75.0938 215.431 74.7485C211.126 74.4032 199.503 71.8028 198.434 56.0473C197.365 40.2919 209.491 -9.08391 274.242 4.27912" stroke="#5A4B8E" stroke-width="4" stroke-linecap="round"/>
</svg>
