<svg width="514" height="527" viewBox="0 0 514 527" fill="none" xmlns="http://www.w3.org/2000/svg">
<path opacity="0.0344828" d="M293.616 326.894C346.566 282.464 390.308 237.291 418.23 200.189C432.195 181.631 442.169 165.138 447.371 151.796C449.972 145.125 451.361 139.291 451.486 134.411C451.611 129.54 450.478 125.682 448.105 122.854C445.732 120.026 442.13 118.241 437.311 117.518C432.483 116.794 426.497 117.148 419.475 118.551C405.433 121.358 387.458 128.316 366.758 138.847C325.371 159.902 273.288 195.135 220.338 239.565C167.389 283.995 123.646 329.169 95.7245 366.271C81.7589 384.828 71.7854 401.322 66.583 414.663C63.9817 421.334 62.5934 427.168 62.4682 432.048C62.3432 436.92 63.476 440.777 65.849 443.605C68.222 446.433 71.8241 448.219 76.6434 448.942C81.471 449.666 87.4575 449.312 94.479 447.908C108.521 445.101 126.496 438.144 147.197 427.613C188.583 406.558 240.666 371.324 293.616 326.894Z" stroke="#666282" stroke-opacity="0.3" stroke-width="2"/>
<path opacity="0.0689655" d="M297.282 321.536C346.158 272.66 385.797 223.846 410.379 184.451C422.674 164.747 431.172 147.447 435.192 133.703C437.202 126.831 438.076 120.898 437.776 116.026C437.475 111.162 436.011 107.418 433.4 104.807C430.79 102.197 427.046 100.732 422.182 100.432C417.31 100.132 411.377 101.006 404.504 103.016C390.76 107.036 373.46 115.534 353.756 127.829C314.362 152.411 265.548 192.05 216.672 240.925C167.796 289.801 128.157 338.615 103.576 378.01C91.2807 397.714 82.7826 415.014 78.7628 428.758C76.7528 435.63 75.8782 441.563 76.1788 446.435C76.4789 451.299 77.9436 455.043 80.554 457.654C83.1645 460.264 86.9085 461.729 91.7725 462.029C96.6449 462.329 102.578 461.455 109.45 459.445C123.194 455.425 140.494 446.927 160.198 434.632C199.593 410.05 248.407 370.411 297.282 321.536Z" stroke="#666282" stroke-opacity="0.3" stroke-width="2"/>
<path opacity="0.103448" d="M300.642 315.869C345.072 262.92 380.305 210.837 401.36 169.45C411.891 148.749 418.849 130.774 421.656 116.732C423.059 109.711 423.413 103.724 422.689 98.8966C421.966 94.0773 420.181 90.4752 417.353 88.1022C414.525 85.7292 410.667 84.5964 405.796 84.7214C400.916 84.8466 395.081 86.2349 388.41 88.8363C375.069 94.0386 358.576 104.012 340.018 117.978C302.916 145.899 257.743 189.642 213.313 242.591C168.883 295.541 133.649 347.624 112.594 389.011C102.063 409.712 95.1054 427.687 92.2987 441.728C90.8953 448.75 90.5412 454.736 91.2653 459.564C91.9882 464.383 93.7736 467.985 96.6016 470.358C99.4297 472.731 103.287 473.864 108.159 473.739C113.039 473.614 118.873 472.226 125.544 469.624C138.885 464.422 155.379 454.448 173.936 440.483C211.038 412.561 256.212 368.819 300.642 315.869Z" stroke="#666282" stroke-opacity="0.3" stroke-width="2"/>
<path opacity="0.137931" d="M303.669 309.924C343.315 253.304 373.875 198.348 391.243 155.284C399.929 133.744 405.294 115.231 406.866 100.998C407.652 93.8807 407.483 87.8861 406.341 83.14C405.201 78.402 403.109 74.9692 400.085 72.8517C397.06 70.7342 393.119 69.9419 388.277 70.491C383.426 71.0411 377.735 72.9326 371.316 76.1054C358.479 82.4508 342.918 93.8239 325.648 109.354C291.121 140.403 249.932 187.916 210.286 244.536C170.64 301.157 140.079 356.112 122.712 399.177C114.025 420.717 108.66 439.23 107.088 453.463C106.302 460.58 106.471 466.574 107.613 471.32C108.753 476.058 110.846 479.491 113.87 481.609C116.894 483.726 120.835 484.518 125.678 483.969C130.528 483.419 136.219 481.528 142.638 478.355C155.475 472.01 171.037 460.636 188.306 445.107C222.834 414.058 264.023 366.544 303.669 309.924Z" stroke="#666282" stroke-opacity="0.3" stroke-width="2"/>
<path opacity="0.172414" d="M306.341 303.73C340.901 243.87 366.555 186.46 380.103 142.046C386.88 119.831 390.611 100.921 390.936 86.605C391.099 79.4465 390.408 73.4894 388.857 68.8609C387.308 64.2403 384.924 61.003 381.727 59.1571C378.53 57.3112 374.535 56.8655 369.759 57.8345C364.974 58.8052 359.47 61.1855 353.352 64.9058C341.117 72.3457 326.606 85.0319 310.755 102.008C279.065 135.948 242.174 186.87 207.614 246.73C173.053 306.591 147.399 364.001 133.851 408.415C127.075 430.63 123.344 449.54 123.018 463.856C122.855 471.014 123.546 476.971 125.098 481.6C126.646 486.221 129.03 489.458 132.227 491.304C135.424 493.15 139.42 493.595 144.196 492.626C148.98 491.656 154.484 489.275 160.602 485.555C172.837 478.115 187.349 465.429 203.199 448.453C234.889 414.513 271.78 363.591 306.341 303.73Z" stroke="#666282" stroke-opacity="0.3" stroke-width="2"/>
<path opacity="0.206897" d="M308.637 297.32C337.848 234.675 358.401 175.248 368.027 129.821C372.841 107.101 374.91 87.9371 373.987 73.6474C373.525 66.5019 372.318 60.6278 370.369 56.152C368.423 51.684 365.766 48.6668 362.42 47.1066C359.075 45.5464 355.055 45.4505 350.382 46.8321C345.701 48.2161 340.425 51.0671 334.654 55.3064C323.114 63.7844 309.764 77.687 295.453 95.9798C266.842 132.553 234.529 186.496 205.318 249.141C176.106 311.786 155.553 371.213 145.927 416.639C141.113 439.36 139.044 458.524 139.968 472.813C140.429 479.959 141.637 485.833 143.586 490.309C145.531 494.777 148.188 497.794 151.534 499.354C154.88 500.914 158.899 501.01 163.572 499.629C168.254 498.245 173.529 495.394 179.3 491.154C190.84 482.676 204.19 468.774 218.501 450.481C247.112 413.908 279.425 359.964 308.637 297.32Z" stroke="#666282" stroke-opacity="0.3" stroke-width="2"/>
<path opacity="0.241379" d="M310.54 290.725C334.18 225.773 349.476 164.78 355.106 118.688C357.921 95.6338 358.312 76.363 356.147 62.2081C355.064 55.1301 353.349 49.3835 351.018 45.0946C348.69 40.8132 345.78 38.039 342.311 36.7764C338.842 35.5137 334.83 35.7685 330.295 37.5522C325.752 39.3389 320.745 42.6388 315.365 47.365C304.608 56.8165 292.52 71.8297 279.859 91.3002C254.544 130.228 227.055 186.782 203.415 251.735C179.774 316.687 164.479 377.679 158.849 423.771C156.033 446.826 155.643 466.096 157.808 480.251C158.89 487.329 160.605 493.076 162.937 497.365C165.264 501.646 168.174 504.42 171.643 505.683C175.112 506.946 179.125 506.691 183.66 504.907C188.203 503.12 193.21 499.82 198.589 495.094C209.346 485.643 221.434 470.63 234.096 451.159C259.411 412.232 286.899 355.677 310.54 290.725Z" stroke="#666282" stroke-opacity="0.3" stroke-width="2"/>
<path opacity="0.275862" d="M312.035 283.984C329.925 217.218 339.846 155.125 341.437 108.717C342.233 85.5054 340.943 66.274 337.552 52.3616C335.856 45.4049 333.647 39.8296 330.951 35.7603C328.259 31.698 325.119 29.188 321.553 28.2325C317.987 27.277 314.012 27.8805 309.65 30.0526C305.28 32.2285 300.579 35.9523 295.632 41.1292C285.74 51.4824 275.006 67.492 264.09 87.9919C242.264 128.978 219.809 187.713 201.919 254.478C184.03 321.244 174.108 383.337 172.517 429.745C171.721 452.957 173.012 472.188 176.403 486.1C178.098 493.057 180.307 498.632 183.004 502.702C185.695 506.764 188.836 509.274 192.402 510.229C195.968 511.185 199.943 510.581 204.305 508.409C208.675 506.233 213.376 502.51 218.322 497.333C228.215 486.98 238.948 470.97 249.865 450.47C271.691 409.484 294.145 350.749 312.035 283.984Z" stroke="#666282" stroke-opacity="0.3" stroke-width="2"/>
<path opacity="0.310345" d="M313.111 277.129C325.114 209.058 329.586 146.336 327.126 99.9668C325.896 76.774 322.934 57.7282 318.344 44.1643C316.049 37.3819 313.362 32.0204 310.321 28.2015C307.285 24.3893 303.938 22.1625 300.303 21.5215C296.667 20.8804 292.76 21.8281 288.603 24.3721C284.44 26.9206 280.081 31.0399 275.605 36.6283C266.652 47.8042 257.355 64.6884 248.267 86.0617C230.096 128.794 212.846 189.262 200.843 257.333C188.841 325.404 184.369 388.126 186.828 434.495C188.059 457.688 191.02 476.734 195.611 490.298C197.906 497.08 200.593 502.442 203.633 506.26C206.669 510.073 210.016 512.299 213.652 512.941C217.288 513.582 221.195 512.634 225.351 510.09C229.515 507.541 233.873 503.422 238.35 497.834C247.302 486.658 256.6 469.774 265.688 448.4C283.859 405.668 301.109 345.2 313.111 277.129Z" stroke="#666282" stroke-opacity="0.3" stroke-width="2"/>
<path opacity="0.344828" d="M313.76 270.199C319.785 201.341 318.773 138.468 312.281 92.4895C309.034 69.4922 304.424 50.777 298.669 37.6648C295.791 31.1082 292.647 26.0012 289.285 22.462C285.929 18.9288 282.4 17.0023 278.723 16.6805C275.045 16.3587 271.235 17.6433 267.316 20.5399C263.391 23.4416 259.408 27.9251 255.435 33.8824C247.491 45.796 239.701 63.4263 232.51 85.5104C218.133 129.663 206.218 191.405 200.194 260.263C194.17 329.121 195.182 391.994 201.673 437.973C204.92 460.97 209.531 479.685 215.286 492.797C218.163 499.354 221.307 504.461 224.669 508C228.026 511.533 231.554 513.46 235.232 513.782C238.91 514.103 242.719 512.819 246.638 509.922C250.564 507.021 254.546 502.537 258.519 496.58C266.463 484.666 274.254 467.036 281.445 444.952C295.822 400.799 307.736 339.057 313.76 270.199Z" stroke="#666282" stroke-opacity="0.3" stroke-width="2"/>
<path opacity="0.37931" d="M313.977 263.23C313.977 194.11 307.489 131.564 297.015 86.326C291.776 63.6992 285.552 45.4571 278.676 32.8964C275.238 26.6155 271.661 21.802 268.004 18.5692C264.352 15.3421 260.669 13.7303 256.977 13.7303C253.285 13.7303 249.602 15.3421 245.951 18.5692C242.293 21.802 238.716 26.6155 235.278 32.8964C228.402 45.4571 222.178 63.6992 216.939 86.326C206.465 131.564 199.977 194.11 199.977 263.23C199.977 332.351 206.465 394.897 216.939 440.135C222.178 462.761 228.402 481.004 235.278 493.564C238.716 499.845 242.293 504.659 245.951 507.891C249.602 511.119 253.285 512.73 256.977 512.73C260.669 512.73 264.352 511.119 268.004 507.891C271.661 504.659 275.238 499.845 278.676 493.564C285.552 481.004 291.776 462.761 297.015 440.135C307.489 394.897 313.977 332.351 313.977 263.23Z" stroke="#666282" stroke-opacity="0.3" stroke-width="2"/>
<path opacity="0.413793" d="M313.76 256.262C307.736 187.404 295.822 125.662 281.445 81.5091C274.254 59.425 266.463 41.7948 258.519 29.8811C254.546 23.9238 250.564 19.4403 246.638 16.5387C242.719 13.6421 238.91 12.3575 235.232 12.6792C231.554 13.001 228.026 14.9276 224.669 18.4607C221.307 22 218.163 27.1069 215.286 33.6635C209.531 46.7758 204.92 65.4909 201.673 88.4882C195.182 134.467 194.17 197.34 200.194 266.198C206.218 335.055 218.133 396.798 232.51 440.95C239.701 463.035 247.491 480.665 255.435 492.579C259.408 498.536 263.391 503.019 267.316 505.921C271.235 508.818 275.045 510.102 278.723 509.78C282.4 509.459 285.929 507.532 289.285 503.999C292.647 500.46 295.791 495.353 298.669 488.796C304.424 475.684 309.034 456.969 312.281 433.971C318.773 387.993 319.785 325.12 313.76 256.262Z" stroke="#666282" stroke-opacity="0.3" stroke-width="2"/>
<path opacity="0.448276" d="M313.111 249.332C301.108 181.261 283.858 120.792 265.688 78.0604C256.599 56.6871 247.302 39.8029 238.35 28.6269C233.873 23.0386 229.515 18.9192 225.351 16.3708C221.195 13.8267 217.288 12.879 213.652 13.5201C210.016 14.1612 206.669 16.388 203.633 20.2002C200.592 24.019 197.906 29.3805 195.61 36.163C191.02 49.7269 188.058 68.7727 186.828 91.9655C184.369 138.335 188.84 201.057 200.843 269.128C212.846 337.198 230.096 397.667 248.266 440.399C257.355 461.772 266.652 478.656 275.605 489.832C280.081 495.421 284.44 499.54 288.603 502.089C292.76 504.633 296.667 505.58 300.302 504.939C303.938 504.298 307.285 502.071 310.321 498.259C313.362 494.44 316.048 489.079 318.344 482.296C322.934 468.732 325.896 449.687 327.126 426.494C329.586 380.124 325.114 317.402 313.111 249.332Z" stroke="#666282" stroke-opacity="0.3" stroke-width="2"/>
<path opacity="0.482759" d="M312.035 242.478C294.145 175.712 271.691 116.977 249.865 75.9915C238.948 55.4916 228.215 39.482 218.322 29.1288C213.376 23.9519 208.675 20.2281 204.305 18.0522C199.943 15.8801 195.968 15.2765 192.402 16.232C188.836 17.1875 185.695 19.6976 183.004 23.7599C180.307 27.8292 178.098 33.4045 176.403 40.3612C173.012 54.2735 171.721 73.505 172.517 96.7167C174.108 143.124 184.03 205.218 201.919 271.983C219.809 338.749 242.264 397.484 264.09 438.47C275.006 458.969 285.74 474.979 295.632 485.332C300.579 490.509 305.28 494.233 309.65 496.409C314.012 498.581 317.987 499.185 321.553 498.229C325.119 497.274 328.259 494.764 330.951 490.701C333.647 486.632 335.856 481.057 337.552 474.1C340.942 460.188 342.233 440.956 341.437 417.744C339.846 371.337 329.925 309.243 312.035 242.478Z" stroke="#666282" stroke-opacity="0.3" stroke-width="2"/>
<path opacity="0.517241" d="M310.54 235.735C286.899 170.783 259.411 114.228 234.096 75.3007C221.434 55.8303 209.346 40.817 198.589 31.3655C193.21 26.6393 188.202 23.3394 183.66 21.5527C179.124 19.769 175.112 19.5142 171.643 20.7769C168.174 22.0395 165.264 24.8137 162.937 29.0952C160.605 33.384 158.89 39.1306 157.808 46.2086C155.643 60.3635 156.033 79.6343 158.849 102.688C164.479 148.781 179.774 209.773 203.415 274.725C227.055 339.678 254.544 396.232 279.859 435.16C292.52 454.63 304.608 469.643 315.365 479.095C320.744 483.821 325.752 487.121 330.295 488.908C334.83 490.691 338.842 490.946 342.311 489.683C345.78 488.421 348.69 485.647 351.018 481.365C353.349 477.076 355.064 471.33 356.147 464.252C358.312 450.097 357.921 430.826 355.106 407.772C349.476 361.68 334.18 300.687 310.54 235.735Z" stroke="#666282" stroke-opacity="0.3" stroke-width="2"/>
<path opacity="0.551724" d="M308.637 229.141C279.425 166.497 247.112 112.553 218.501 75.9801C204.19 57.6873 190.84 43.7847 179.3 35.3067C173.53 31.0674 168.254 28.2164 163.572 26.8324C158.899 25.4508 154.88 25.5466 151.534 27.1069C148.188 28.6671 145.531 31.6843 143.586 36.1523C141.637 40.6281 140.429 46.5022 139.968 53.6476C139.044 67.9374 141.113 87.1008 145.927 109.822C155.553 155.248 176.106 214.675 205.318 277.32C234.529 339.965 266.842 393.908 295.453 430.481C309.764 448.774 323.114 462.677 334.654 471.155C340.425 475.394 345.701 478.245 350.382 479.629C355.055 481.01 359.075 480.915 362.42 479.354C365.766 477.794 368.423 474.777 370.369 470.309C372.318 465.833 373.525 459.959 373.987 452.814C374.91 438.524 372.841 419.361 368.027 396.64C358.401 351.213 337.848 291.786 308.637 229.141Z" stroke="#666282" stroke-opacity="0.3" stroke-width="2"/>
<path opacity="0.586207" d="M306.341 222.73C271.78 162.87 234.889 111.948 203.199 78.0078C187.349 61.0319 172.837 48.3457 160.602 40.9058C154.484 37.1855 148.98 34.8052 144.196 33.8345C139.42 32.8655 135.424 33.3112 132.227 35.1571C129.03 37.003 126.646 40.2403 125.098 44.8609C123.546 49.4894 122.855 55.4465 123.018 62.605C123.344 76.9208 127.075 95.831 133.851 118.046C147.399 162.46 173.053 219.87 207.614 279.73C242.174 339.591 279.065 390.513 310.755 424.453C326.606 441.429 341.117 454.115 353.352 461.555C359.47 465.275 364.974 467.656 369.759 468.626C374.535 469.595 378.53 469.15 381.727 467.304C384.924 465.458 387.308 462.221 388.857 457.6C390.408 452.971 391.099 447.014 390.936 439.856C390.611 425.54 386.88 406.63 380.103 384.415C366.555 340.001 340.901 282.591 306.341 222.73Z" stroke="#666282" stroke-opacity="0.3" stroke-width="2"/>
<path opacity="0.62069" d="M303.669 216.537C264.023 159.917 222.834 112.403 188.306 81.3544C171.037 65.8246 155.475 54.4515 142.638 48.1061C136.219 44.9333 130.528 43.0418 125.678 42.4917C120.835 41.9426 116.894 42.7349 113.87 44.8524C110.846 46.9699 108.753 50.4027 107.613 55.1406C106.471 59.8868 106.302 65.8814 107.088 72.9985C108.66 87.2315 114.025 105.744 122.712 127.284C140.079 170.349 170.64 225.304 210.286 281.925C249.932 338.545 291.121 386.058 325.648 417.107C342.918 432.637 358.479 444.01 371.316 450.356C377.735 453.528 383.426 455.42 388.277 455.97C393.119 456.519 397.06 455.727 400.085 453.609C403.109 451.492 405.201 448.059 406.341 443.321C407.483 438.575 407.652 432.58 406.866 425.463C405.294 411.23 399.929 392.717 391.243 371.177C373.875 328.113 343.315 273.157 303.669 216.537Z" stroke="#666282" stroke-opacity="0.3" stroke-width="2"/>
<path opacity="0.655172" d="M300.642 210.591C256.212 157.642 211.038 113.899 173.936 85.9777C155.379 72.012 138.885 62.0385 125.544 56.8361C118.873 54.2348 113.039 52.8465 108.159 52.7213C103.287 52.5963 99.4297 53.7291 96.6016 56.1021C93.7736 58.4751 91.9882 62.0772 91.2653 66.8965C90.5412 71.7242 90.8953 77.7107 92.2987 84.7321C95.1054 98.7739 102.063 116.749 112.594 137.45C133.649 178.837 168.883 230.92 213.313 283.869C257.743 336.819 302.916 380.561 340.018 408.483C358.576 422.448 375.069 432.422 388.41 437.624C395.081 440.226 400.916 441.614 405.796 441.739C410.667 441.864 414.525 440.731 417.353 438.358C420.181 435.985 421.966 432.383 422.689 427.564C423.413 422.736 423.059 416.75 421.656 409.728C418.849 395.686 411.891 377.711 401.36 357.011C380.305 315.624 345.072 263.541 300.642 210.591Z" stroke="#666282" stroke-opacity="0.3" stroke-width="2"/>
<path opacity="0.689655" d="M297.282 204.925C248.407 156.05 199.593 116.411 160.198 91.829C140.494 79.5339 123.194 71.0359 109.45 67.016C102.578 65.006 96.6448 64.1315 91.7724 64.4321C86.9085 64.7322 83.1645 66.1968 80.554 68.8073C77.9435 71.4178 76.4789 75.1618 76.1788 80.0257C75.8782 84.8981 76.7527 90.831 78.7628 97.7034C82.7826 111.447 91.2806 128.747 103.576 148.451C128.157 187.846 167.796 236.66 216.672 285.536C265.548 334.411 314.362 374.05 353.756 398.632C373.46 410.927 390.76 419.425 404.504 423.445C411.377 425.455 417.31 426.329 422.182 426.029C427.046 425.729 430.79 424.264 433.4 421.654C436.011 419.043 437.475 415.299 437.776 410.435C438.076 405.563 437.202 399.63 435.192 392.758C431.172 379.014 422.674 361.714 410.379 342.009C385.797 302.615 346.158 253.801 297.282 204.925Z" stroke="#666282" stroke-opacity="0.3" stroke-width="2"/>
<path opacity="0.724138" d="M293.616 199.566C240.666 155.136 188.584 119.902 147.197 98.8477C126.496 88.3167 108.521 81.3588 94.4791 78.5521C87.4576 77.1487 81.4711 76.7946 76.6435 77.5187C71.8242 78.2415 68.2221 80.0269 65.8491 82.855C63.476 85.6831 62.3432 89.5404 62.4682 94.412C62.5934 99.2921 63.9817 105.126 66.5831 111.797C71.7854 125.138 81.759 141.632 95.7246 160.19C123.646 197.292 167.389 242.465 220.338 286.895C273.288 331.325 325.371 366.559 366.758 387.613C387.458 398.144 405.433 405.102 419.475 407.909C426.497 409.312 432.483 409.666 437.311 408.942C442.13 408.219 445.732 406.434 448.105 403.606C450.478 400.778 451.611 396.921 451.486 392.049C451.361 387.169 449.973 381.335 447.371 374.664C442.169 361.323 432.195 344.829 418.23 326.271C390.308 289.169 346.566 243.996 293.616 199.566Z" stroke="#666282" stroke-opacity="0.3" stroke-width="2"/>
<path opacity="0.758621" d="M289.671 194.539C233.051 154.892 178.095 124.332 135.03 106.965C113.491 98.278 94.9777 92.9132 80.7447 91.3411C73.6277 90.555 67.6331 90.724 62.8869 91.8661C58.149 93.0062 54.7162 95.0987 52.5987 98.1229C50.4812 101.147 49.6889 105.088 50.238 109.931C50.788 114.781 52.6795 120.472 55.8524 126.891C62.1977 139.728 73.5708 155.29 89.1007 172.559C120.15 207.087 167.663 248.276 224.283 287.922C280.904 327.568 335.859 358.128 378.924 375.496C400.463 384.182 418.977 389.547 433.21 391.119C440.327 391.905 446.321 391.736 451.067 390.594C455.805 389.454 459.238 387.362 461.356 384.338C463.473 381.313 464.265 377.372 463.716 372.53C463.166 367.679 461.275 361.988 458.102 355.569C451.757 342.732 440.383 327.171 424.854 309.901C393.805 275.374 346.291 234.185 289.671 194.539Z" stroke="#666282" stroke-opacity="0.3" stroke-width="2"/>
<path opacity="0.793103" d="M285.477 189.867C225.617 155.307 168.207 129.652 123.793 116.104C101.578 109.328 82.6675 105.597 68.3517 105.271C61.1932 105.108 55.2362 105.799 50.6076 107.351C45.987 108.899 42.7497 111.283 40.9038 114.48C39.0579 117.677 38.6122 121.673 39.5812 126.449C40.5519 131.233 42.9322 136.737 46.6525 142.855C54.0924 155.09 66.7786 169.602 83.7545 185.452C117.695 217.142 168.617 254.033 228.477 288.594C288.337 323.154 345.747 348.808 390.162 362.356C412.377 369.133 431.287 372.864 445.603 373.189C452.761 373.352 458.718 372.661 463.347 371.11C467.967 369.561 471.205 367.177 473.05 363.98C474.896 360.783 475.342 356.788 474.373 352.012C473.402 347.228 471.022 341.723 467.302 335.605C459.862 323.37 447.176 308.859 430.2 293.008C396.26 261.319 345.337 224.427 285.477 189.867Z" stroke="#666282" stroke-opacity="0.3" stroke-width="2"/>
<path opacity="0.827586" d="M281.066 185.571C218.422 156.359 158.994 135.806 113.568 126.18C90.8473 121.366 71.684 119.297 57.3942 120.221C50.2488 120.682 44.3746 121.89 39.8988 123.839C35.4309 125.784 32.4136 128.441 30.8534 131.787C29.2932 135.133 29.1974 139.152 30.579 143.825C31.963 148.507 34.8139 153.782 39.0532 159.553C47.5313 171.093 61.4338 184.443 79.7266 198.754C116.3 227.365 170.243 259.678 232.888 288.89C295.533 318.101 354.96 338.654 400.386 348.28C423.107 353.094 442.27 355.163 456.56 354.24C463.706 353.778 469.58 352.571 474.056 350.622C478.524 348.676 481.541 346.019 483.101 342.673C484.661 339.328 484.757 335.308 483.375 330.635C481.991 325.954 479.14 320.678 474.901 314.907C466.423 303.367 452.521 290.017 434.228 275.706C397.655 247.095 343.711 214.782 281.066 185.571Z" stroke="#666282" stroke-opacity="0.3" stroke-width="2"/>
<path opacity="0.862069" d="M276.472 181.668C211.52 158.027 150.528 142.732 104.435 137.102C81.3813 134.286 62.1106 133.896 47.9557 136.061C40.8777 137.144 35.1311 138.858 30.8422 141.19C26.5608 143.517 23.7866 146.427 22.5239 149.896C21.2613 153.365 21.5161 157.378 23.2997 161.913C25.0865 166.456 28.3864 171.463 33.1125 176.842C42.5641 187.599 57.5773 199.687 77.0477 212.349C115.975 237.664 172.53 265.152 237.482 288.793C302.434 312.433 363.427 327.729 409.519 333.359C432.573 336.174 451.844 336.565 465.999 334.4C473.077 333.317 478.823 331.602 483.112 329.271C487.394 326.943 490.168 324.033 491.431 320.564C492.693 317.095 492.438 313.083 490.655 308.548C488.868 304.005 485.568 298.998 480.842 293.619C471.39 282.861 456.377 270.773 436.907 258.112C397.979 232.797 341.425 205.309 276.472 181.668Z" stroke="#666282" stroke-opacity="0.3" stroke-width="2"/>
<path opacity="0.896552" d="M271.73 178.173C204.964 160.283 142.871 150.362 96.4634 148.77C73.2516 147.975 54.0202 149.265 40.1078 152.656C33.1511 154.351 27.5758 156.56 23.5065 159.257C19.4442 161.949 16.9342 165.089 15.9787 168.655C15.0232 172.221 15.6267 176.196 17.7988 180.558C19.9747 184.928 23.6985 189.629 28.8755 194.575C39.2286 204.468 55.2382 215.201 75.7381 226.118C116.724 247.944 175.459 270.398 242.225 288.288C308.99 306.178 371.084 316.099 417.491 317.69C440.703 318.486 459.934 317.196 473.847 313.805C480.803 312.11 486.379 309.901 490.448 307.204C494.51 304.512 497.02 301.372 497.976 297.806C498.931 294.24 498.328 290.265 496.156 285.903C493.98 281.533 490.256 276.832 485.079 271.885C474.726 261.993 458.716 251.259 438.216 240.343C397.231 218.517 338.495 196.062 271.73 178.173Z" stroke="#666282" stroke-opacity="0.3" stroke-width="2"/>
<path opacity="0.931035" d="M266.875 175.096C198.805 163.093 136.083 158.622 89.713 161.081C66.5202 162.312 47.4745 165.273 33.9105 169.864C27.1281 172.159 21.7666 174.845 17.9477 177.886C14.1355 180.922 11.9087 184.269 11.2677 187.905C10.6266 191.541 11.5743 195.448 14.1183 199.604C16.6668 203.768 20.7861 208.126 26.3745 212.603C37.5504 221.555 54.4346 230.852 75.8079 239.941C118.54 258.111 179.009 275.362 247.079 287.364C315.15 299.367 377.872 303.839 424.241 301.379C447.434 300.149 466.48 297.187 480.044 292.597C486.826 290.302 492.188 287.615 496.007 284.574C499.819 281.538 502.046 278.191 502.687 274.555C503.328 270.92 502.38 267.013 499.836 262.856C497.288 258.693 493.168 254.334 487.58 249.858C476.404 240.905 459.52 231.608 438.146 222.52C395.415 204.349 334.946 187.099 266.875 175.096Z" stroke="#666282" stroke-opacity="0.3" stroke-width="2"/>
<path opacity="0.965517" d="M261.945 172.448C193.087 166.423 130.214 167.435 84.2356 173.927C61.2383 177.174 42.5231 181.784 29.4109 187.539C22.8543 190.417 17.7473 193.561 14.2081 196.923C10.6749 200.279 8.74834 203.808 8.42659 207.485C8.10483 211.163 9.38941 214.973 12.286 218.892C15.1877 222.817 19.6712 226.8 25.6285 230.773C37.5421 238.717 55.1724 246.507 77.2565 253.698C121.409 268.075 183.152 279.99 252.009 286.014C320.867 292.038 383.74 291.026 429.719 284.535C452.716 281.288 471.431 276.677 484.543 270.922C491.1 268.045 496.207 264.901 499.746 261.539C503.279 258.183 505.206 254.654 505.528 250.976C505.85 247.298 504.565 243.489 501.668 239.57C498.767 235.644 494.283 231.662 488.326 227.689C476.412 219.745 458.782 211.954 436.698 204.763C392.545 190.386 330.803 178.472 261.945 172.448Z" stroke="#666282" stroke-opacity="0.3" stroke-width="2"/>
<path d="M256.977 170.23C187.856 170.23 125.311 176.718 80.0729 187.192C57.4461 192.431 39.2039 198.655 26.6432 205.531C20.3623 208.969 15.5488 212.546 12.316 216.204C9.08889 219.856 7.47717 223.539 7.47717 227.23C7.47717 230.922 9.08889 234.605 12.316 238.257C15.5488 241.915 20.3623 245.491 26.6432 248.93C39.2039 255.806 57.4461 262.03 80.0729 267.269C125.311 277.743 187.856 284.23 256.977 284.23C326.098 284.23 388.643 277.743 433.881 267.269C456.508 262.03 474.75 255.806 487.311 248.93C493.592 245.491 498.406 241.915 501.638 238.257C504.865 234.605 506.477 230.922 506.477 227.23C506.477 223.539 504.865 219.856 501.638 216.204C498.406 212.546 493.592 208.969 487.311 205.531C474.75 198.655 456.508 192.431 433.881 187.192C388.643 176.718 326.098 170.23 256.977 170.23Z" stroke="#666282" stroke-opacity="0.3" stroke-width="2"/>
</svg>
