<svg width="62" height="49" viewBox="0 0 62 49" fill="none" xmlns="http://www.w3.org/2000/svg">
<path d="M39.6451 18.2489C36.6499 16.9205 30.593 0.115512 28.5297 2.17462C26.4663 4.23372 23.4045 18.2489 21.4744 18.2489C19.5442 18.2489 1.04057 13.2672 2.03896 14.9942C3.03736 16.7212 17.6139 27.8802 17.5473 30.4707C17.4808 33.0612 11.2907 46.8771 13.221 46.8771C15.1512 46.8771 27.9972 34.921 30.593 35.0539C33.1888 35.1867 49.1631 48.4048 50.4278 46.8771C51.6924 45.3494 43.3724 32.3305 44.1712 30.4707C44.9699 28.6109 62.1422 14.9942 59.6795 14.9942C57.2168 14.9942 42.6403 19.5773 39.6451 18.2489Z" stroke="#5A4B8E" stroke-width="4" stroke-linecap="round"/>
</svg>
